<svg width="68" height="13" viewBox="0 0 68 13" fill="none" xmlns="http://www.w3.org/2000/svg">
<path opacity="0.7" d="M4.96 12.112C4.18133 12.112 3.47733 11.9787 2.848 11.712C2.22933 11.4453 1.73867 11.0613 1.376 10.56C1.01333 10.0587 0.826667 9.46667 0.816 8.784H3.216C3.248 9.24267 3.408 9.60533 3.696 9.872C3.99467 10.1387 4.4 10.272 4.912 10.272C5.43467 10.272 5.84533 10.1493 6.144 9.904C6.44267 9.648 6.592 9.31733 6.592 8.912C6.592 8.58133 6.49067 8.30933 6.288 8.096C6.08533 7.88267 5.82933 7.71733 5.52 7.6C5.22133 7.472 4.80533 7.33333 4.272 7.184C3.54667 6.97067 2.95467 6.76267 2.496 6.56C2.048 6.34667 1.65867 6.032 1.328 5.616C1.008 5.18933 0.848 4.624 0.848 3.92C0.848 3.25867 1.01333 2.68267 1.344 2.192C1.67467 1.70133 2.13867 1.328 2.736 1.072C3.33333 0.805333 4.016 0.672 4.784 0.672C5.936 0.672 6.86933 0.954666 7.584 1.52C8.30933 2.07467 8.70933 2.85333 8.784 3.856H6.32C6.29867 3.472 6.13333 3.15733 5.824 2.912C5.52533 2.656 5.12533 2.528 4.624 2.528C4.18667 2.528 3.83467 2.64 3.568 2.864C3.312 3.088 3.184 3.41333 3.184 3.84C3.184 4.13867 3.28 4.38933 3.472 4.592C3.67467 4.784 3.92 4.944 4.208 5.072C4.50667 5.18933 4.92267 5.328 5.456 5.488C6.18133 5.70133 6.77333 5.91467 7.232 6.128C7.69067 6.34133 8.08533 6.66133 8.416 7.088C8.74667 7.51467 8.912 8.07467 8.912 8.768C8.912 9.36533 8.75733 9.92 8.448 10.432C8.13867 10.944 7.68533 11.3547 7.088 11.664C6.49067 11.9627 5.78133 12.112 4.96 12.112ZM18.454 0.832V2.64H15.478V12H13.238V2.64H10.262V0.832H18.454ZM28.9684 0.832L25.1924 8.112V12H22.9524V8.112L19.1604 0.832H21.6884L24.0884 5.936L26.4724 0.832H28.9684ZM36.0203 12L33.5563 7.648H32.5003V12H30.2603V0.832H34.4523C35.3163 0.832 36.0523 0.986666 36.6603 1.296C37.2683 1.59467 37.7216 2.00533 38.0203 2.528C38.3296 3.04 38.4843 3.616 38.4843 4.256C38.4843 4.992 38.2709 5.65867 37.8443 6.256C37.4176 6.84267 36.7829 7.248 35.9403 7.472L38.6123 12H36.0203ZM32.5003 5.968H34.3723C34.9803 5.968 35.4336 5.824 35.7323 5.536C36.0309 5.23733 36.1803 4.82667 36.1803 4.304C36.1803 3.792 36.0309 3.39733 35.7323 3.12C35.4336 2.832 34.9803 2.688 34.3723 2.688H32.5003V5.968ZM47.3583 9.872H42.9103L42.1743 12H39.8223L43.8383 0.815999H46.4463L50.4623 12H48.0943L47.3583 9.872ZM46.7503 8.08L45.1343 3.408L43.5182 8.08H46.7503ZM59.5634 0.832V2.64H56.5874V12H54.3474V2.64H51.3714V0.832H59.5634ZM63.4378 2.64V5.44H67.1978V7.216H63.4378V10.176H67.6778V12H61.1978V0.815999H67.6778V2.64H63.4378Z" fill="black"/>
</svg>
